<svg width="21" height="15" viewBox="0 0 21 15" fill="none" xmlns="http://www.w3.org/2000/svg">
<path d="M20.3238 1.50473L14.2582 7.53125L20.3238 13.5578C20.4335 13.3286 20.5 13.0752 20.5 12.8047V2.25781C20.5 1.98723 20.4335 1.73391 20.3238 1.50473ZM18.7422 0.5H2.25781C1.98723 0.5 1.73391 0.566524 1.50473 0.676172L9.25719 8.38957C9.94266 9.07504 11.0573 9.07504 11.7428 8.38957L19.4953 0.676172C19.2661 0.566524 19.0128 0.5 18.7422 0.5ZM0.676172 1.50473C0.566523 1.73391 0.5 1.98723 0.5 2.25781V12.8047C0.5 13.0753 0.566523 13.3286 0.676172 13.5578L6.74176 7.53125L0.676172 1.50473Z" fill="black"/>
<path d="M13.4297 8.35974L12.5714 9.21806C11.4293 10.3602 9.57078 10.3602 8.42863 9.21806L7.57035 8.35974L1.50476 14.3863C1.73394 14.4959 1.98726 14.5624 2.25785 14.5624H18.7422C19.0128 14.5624 19.2661 14.4959 19.4953 14.3863L13.4297 8.35974Z" fill="black"/>
</svg>
