<svg width="21" height="21" viewBox="0 0 21 21" fill="none" xmlns="http://www.w3.org/2000/svg">
<g clip-path="url(#clip0_174_499)">
<path d="M16.3064 13.214C15.897 12.7877 15.4031 12.5597 14.8797 12.5597C14.3605 12.5597 13.8624 12.7834 13.436 13.2098L12.1022 14.5394C11.9924 14.4803 11.8827 14.4255 11.7771 14.3706C11.6252 14.2946 11.4816 14.2228 11.3592 14.1469C10.1098 13.3533 8.97429 12.3191 7.88524 10.981C7.3576 10.3141 7.00302 9.75266 6.74553 9.1828C7.09166 8.86622 7.41247 8.53697 7.72484 8.22038C7.84303 8.10219 7.96122 7.97978 8.07941 7.86159C8.96585 6.97515 8.96585 5.827 8.07941 4.94056L6.92704 3.78819C6.79619 3.65734 6.66111 3.52226 6.53447 3.38718C6.28121 3.12547 6.01528 2.85532 5.7409 2.60205C5.33145 2.19682 4.8418 1.98154 4.32682 1.98154C3.81184 1.98154 3.31375 2.19682 2.89163 2.60205L2.88319 2.61049L1.448 4.05834C0.907699 4.59865 0.599556 5.25715 0.532018 6.02117C0.43071 7.25374 0.793728 8.40189 1.07232 9.15326C1.75615 10.9979 2.77766 12.7075 4.30149 14.5394C6.15035 16.7471 8.37489 18.4904 10.916 19.7188C11.8869 20.1789 13.1828 20.7234 14.6306 20.8163C14.7193 20.8205 14.8121 20.8247 14.8965 20.8247C15.8716 20.8247 16.6905 20.4743 17.3321 19.7779C17.3364 19.7694 17.3448 19.7652 17.349 19.7568C17.5685 19.4908 17.8218 19.2502 18.0877 18.9927C18.2692 18.8197 18.455 18.6382 18.6365 18.4482C19.0544 18.0134 19.2739 17.5069 19.2739 16.9877C19.2739 16.4643 19.0501 15.9619 18.6238 15.5398L16.3064 13.214ZM17.8176 17.6588C17.8134 17.6588 17.8134 17.6631 17.8176 17.6588C17.653 17.8361 17.4841 17.9965 17.3026 18.1738C17.0282 18.4355 16.7496 18.7099 16.4879 19.0181C16.0616 19.4739 15.5593 19.6892 14.9008 19.6892C14.8375 19.6892 14.7699 19.6892 14.7066 19.685C13.4529 19.6048 12.2879 19.1151 11.4141 18.6972C9.02495 17.5407 6.92704 15.8986 5.18371 13.8176C3.7443 12.0827 2.78188 10.4787 2.14449 8.75647C1.75193 7.70541 1.60841 6.88651 1.67172 6.11404C1.71394 5.62016 1.90389 5.21071 2.25424 4.86036L3.69365 3.42095C3.90049 3.22678 4.11998 3.12125 4.33526 3.12125C4.60119 3.12125 4.81647 3.28165 4.95155 3.41673L4.96421 3.42939C5.2217 3.67 5.46653 3.91905 5.72402 4.18498C5.85487 4.32005 5.98995 4.45513 6.12502 4.59443L7.2774 5.7468C7.72484 6.19424 7.72484 6.60791 7.2774 7.05535C7.15498 7.17776 7.03679 7.30018 6.91438 7.41837C6.5598 7.78139 6.22211 8.11908 5.85487 8.44833C5.84643 8.45677 5.83799 8.46099 5.83377 8.46943C5.47075 8.83245 5.53829 9.18703 5.61427 9.42763L5.62693 9.46562C5.92663 10.1917 6.34874 10.8755 6.99036 11.6902L6.99458 11.6944C8.15961 13.1296 9.38796 14.2482 10.7429 15.1051C10.916 15.2148 11.0933 15.3035 11.2621 15.3879C11.4141 15.4639 11.5576 15.5356 11.68 15.6116C11.6969 15.62 11.7138 15.6327 11.7307 15.6411C11.8742 15.7129 12.0093 15.7467 12.1486 15.7467C12.4989 15.7467 12.7184 15.5272 12.7902 15.4554L14.2338 14.0118C14.3773 13.8683 14.6053 13.6952 14.8712 13.6952C15.1329 13.6952 15.3482 13.8598 15.4791 14.0033L15.4875 14.0118L17.8134 16.3376C18.2481 16.7682 18.2481 17.2114 17.8176 17.6588ZM11.3086 5.58217C12.4145 5.7679 13.4191 6.29132 14.2212 7.09334C15.0232 7.89536 15.5424 8.89999 15.7323 10.0059C15.7788 10.2845 16.0194 10.4787 16.2937 10.4787C16.3275 10.4787 16.3571 10.4745 16.3908 10.4703C16.7032 10.4196 16.91 10.1241 16.8594 9.81175C16.6314 8.47365 15.9983 7.25374 15.0316 6.2871C14.065 5.32046 12.8451 4.68729 11.507 4.45935C11.1946 4.4087 10.9034 4.61553 10.8485 4.92368C10.7936 5.23182 10.9962 5.53152 11.3086 5.58217ZM20.4769 9.64713C20.1012 7.4437 19.0628 5.43865 17.4672 3.84307C15.8716 2.24748 13.8666 1.20908 11.6632 0.833395C11.355 0.77852 11.0638 0.989577 11.0089 1.29772C10.9582 1.61008 11.1651 1.90134 11.4774 1.95622C13.4445 2.28969 15.2385 3.22256 16.6652 4.64508C18.0919 6.07183 19.0206 7.86581 19.3541 9.83286C19.4005 10.1115 19.6411 10.3056 19.9155 10.3056C19.9492 10.3056 19.9788 10.3014 20.0126 10.2972C20.3207 10.2508 20.5318 9.95527 20.4769 9.64713Z" fill="black"/>
</g>
<defs>
<clipPath id="clip0_174_499">
<rect width="20" height="20" fill="white" transform="translate(0.5 0.824707)"/>
</clipPath>
</defs>
</svg>
