<svg width="21" height="21" viewBox="0 0 21 21" fill="none" xmlns="http://www.w3.org/2000/svg">
<g clip-path="url(#clip0_174_81)">
<path d="M18.7422 3.29333H2.25781C1.29055 3.29333 0.5 4.08041 0.5 5.05115V15.598C0.5 16.5691 1.29105 17.3558 2.25781 17.3558H18.7422C19.7095 17.3558 20.5 16.5688 20.5 15.598V5.05115C20.5 4.08017 19.7091 3.29333 18.7422 3.29333ZM18.4723 4.46521L10.9541 12.0079C10.725 12.2377 10.2751 12.2379 10.0459 12.0079L2.52773 4.46521H18.4723ZM1.67188 15.3826V5.26658L6.71348 10.3246L1.67188 15.3826ZM2.52773 16.184L7.54078 11.1546L9.21598 12.8352C9.90246 13.524 11.0978 13.5237 11.7841 12.8352L13.4593 11.1546L18.4723 16.184H2.52773ZM19.3281 15.3826L14.2865 10.3246L19.3281 5.26658V15.3826Z" fill="black"/>
</g>
<defs>
<clipPath id="clip0_174_81">
<rect width="20" height="20" fill="white" transform="translate(0.5 0.324585)"/>
</clipPath>
</defs>
</svg>
