<svg width="19" height="19" viewBox="0 0 19 19" fill="none" xmlns="http://www.w3.org/2000/svg">
<path d="M15.2903 16.6696C13.7294 17.9879 11.7044 18.8247 9.5001 18.8247C6.22002 18.8247 3.34069 17.0176 1.77979 14.3809L2.36415 11.6872L4.95439 11.2063C5.55557 13.1469 7.36959 14.5708 9.5001 14.5708C10.5337 14.5708 11.4935 14.2438 12.2845 13.6637L14.7735 14.0434L15.2903 16.6696Z" fill="#59C36A"/>
<path d="M15.2902 16.6697L14.7734 14.0435L12.2844 13.6638C11.4934 14.2439 10.5336 14.5708 9.5 14.5708V18.8248C11.7043 18.8248 13.7293 17.988 15.2902 16.6697Z" fill="#00A66C"/>
<path d="M4.75391 9.8248C4.75391 10.3099 4.82773 10.774 4.9543 11.2064L1.77969 14.3811C0.988672 13.0521 0.5 11.4912 0.5 9.8248C0.5 8.15836 0.988672 6.59746 1.77969 5.26855L4.32757 5.70706L4.9543 8.44316C4.82773 8.87555 4.75391 9.33961 4.75391 9.8248Z" fill="#FFDA2D"/>
<path d="M18.5 9.82471C18.5 12.5669 17.2309 15.0243 15.2902 16.6696L12.2844 13.6638C12.8961 13.2208 13.4129 12.6301 13.7504 11.9341H9.5C9.20465 11.9341 8.97266 11.702 8.97266 11.4067V8.24268C8.97266 7.94733 9.20465 7.71533 9.5 7.71533H17.825C18.0781 7.71533 18.2996 7.89459 18.3418 8.14772C18.4473 8.69619 18.5 9.26569 18.5 9.82471Z" fill="#4086F4"/>
<path d="M13.7504 11.9341C13.4129 12.6301 12.8961 13.2208 12.2844 13.6638L15.2902 16.6696C17.2309 15.0243 18.5 12.5669 18.5 9.82471C18.5 9.26569 18.4473 8.69619 18.3418 8.14772C18.2996 7.89459 18.0781 7.71533 17.825 7.71533H9.5V11.9341H13.7504Z" fill="#4175DF"/>
<path d="M15.438 3.33834C15.4485 3.486 15.3853 3.62314 15.2903 3.72858L13.0333 5.97506C12.854 6.16491 12.5587 6.186 12.3478 6.0278C11.5145 5.40557 10.5337 5.07861 9.5001 5.07861C7.36959 5.07861 5.55557 6.50241 4.95439 8.44307L1.77979 5.26846C3.34069 2.63174 6.22002 0.824707 9.5001 0.824707C11.5989 0.824707 13.645 1.59814 15.2481 2.94811C15.3642 3.04307 15.4274 3.19069 15.438 3.33834Z" fill="#FF641A"/>
<path d="M12.3477 6.0278C12.5586 6.18603 12.8539 6.16491 13.0332 5.97506L15.2902 3.72858C15.3852 3.62314 15.4484 3.48603 15.4379 3.33834C15.4273 3.19065 15.364 3.04307 15.248 2.94811C13.6449 1.59814 11.5988 0.824707 9.5 0.824707V5.07861C10.5336 5.07861 11.5144 5.40557 12.3477 6.0278Z" fill="#F03800"/>
</svg>
