<svg width="20" height="21" viewBox="0 0 20 21" fill="none" xmlns="http://www.w3.org/2000/svg">
<g clip-path="url(#clip0_174_114)">
<path d="M20 10.8247C20 15.8161 16.343 19.9532 11.5625 20.7032V13.7153H13.8926L14.3359 10.8247H11.5625V8.94893C11.5625 8.15791 11.95 7.38721 13.1922 7.38721H14.4531V4.92627C14.4531 4.92627 13.3086 4.73096 12.2145 4.73096C9.93047 4.73096 8.4375 6.11533 8.4375 8.62158V10.8247H5.89844V13.7153H8.4375V20.7032C3.65703 19.9532 0 15.8161 0 10.8247C0 5.30205 4.47734 0.824707 10 0.824707C15.5227 0.824707 20 5.30205 20 10.8247Z" fill="#1877F2"/>
<path d="M13.8926 13.7153L14.3359 10.8247H11.5625V8.94889C11.5625 8.15807 11.9499 7.38721 13.1921 7.38721H14.4531V4.92627C14.4531 4.92627 13.3088 4.73096 12.2146 4.73096C9.93043 4.73096 8.4375 6.11533 8.4375 8.62158V10.8247H5.89844V13.7153H8.4375V20.7032C8.94664 20.7831 9.46844 20.8247 10 20.8247C10.5316 20.8247 11.0534 20.7831 11.5625 20.7032V13.7153H13.8926Z" fill="white"/>
</g>
<defs>
<clipPath id="clip0_174_114">
<rect width="20" height="20" fill="white" transform="translate(0 0.824707)"/>
</clipPath>
</defs>
</svg>
