<svg width="21" height="21" viewBox="0 0 21 21" fill="none" xmlns="http://www.w3.org/2000/svg">
<g clip-path="url(#clip0_174_90)">
<path d="M10.5 20.8247C16.0228 20.8247 20.5 16.3476 20.5 10.8247C20.5 5.30186 16.0228 0.824707 10.5 0.824707C4.97715 0.824707 0.5 5.30186 0.5 10.8247C0.5 16.3476 4.97715 20.8247 10.5 20.8247Z" fill="#39CD00"/>
<path d="M16.75 10.5974C16.7411 10.7244 16.7248 10.8507 16.7011 10.9758C16.6221 11.4547 16.4602 11.9161 16.2227 12.3394C16.1091 12.5417 15.5625 13.3099 15.3955 13.5122C14.4716 14.6247 12.9239 15.9088 10.3375 17.1576C10.2829 17.184 10.2223 17.1953 10.1619 17.1905C10.1015 17.1856 10.0435 17.1648 9.99385 17.13C9.94419 17.0953 9.90468 17.048 9.8794 16.9929C9.85412 16.9378 9.84397 16.877 9.85 16.8167L9.98068 15.6428C9.99057 15.553 9.96441 15.463 9.90795 15.3925C9.85148 15.3219 9.76934 15.2767 9.67955 15.2667C8.81913 15.1806 7.98098 14.9417 7.20455 14.561C5.43182 13.6849 4.25 12.1201 4.25 10.3372C4.25 7.59171 7.04773 5.37012 10.5 5.37012C12.2341 5.37012 13.8023 5.9383 14.9318 6.83944C15.9898 7.68603 16.667 8.83489 16.7398 10.1099C16.7519 10.2721 16.7553 10.4348 16.75 10.5974Z" fill="white"/>
<path d="M8.77724 11.4371C8.80747 11.4667 8.83141 11.5021 8.84762 11.5411C8.86383 11.5802 8.87197 11.6221 8.87156 11.6644C8.87171 11.7064 8.86356 11.7481 8.84758 11.7869C8.8316 11.8258 8.8081 11.8611 8.77843 11.8909C8.74877 11.9207 8.71352 11.9443 8.6747 11.9604C8.63588 11.9765 8.59427 11.9848 8.55224 11.9848H7.27383C7.18893 11.9845 7.1076 11.9507 7.04757 11.8907C6.98753 11.8306 6.95368 11.7493 6.95338 11.6644V9.24962C6.95309 9.20735 6.9613 9.16546 6.9775 9.12642C6.9937 9.08738 7.01757 9.05199 7.04769 9.02234C7.09242 8.97748 7.14949 8.94693 7.21163 8.93459C7.27376 8.92224 7.33817 8.92866 7.39665 8.95303C7.45513 8.9774 7.50504 9.01861 7.54003 9.07142C7.57502 9.12424 7.59351 9.18626 7.59315 9.24962V11.3439H8.55224C8.59407 11.3436 8.63554 11.3517 8.67419 11.3677C8.71284 11.3837 8.74788 11.4073 8.77724 11.4371ZM9.81815 9.1803V11.7337C9.81785 11.7999 9.79141 11.8633 9.7446 11.9102C9.69778 11.957 9.63436 11.9834 9.56815 11.9837H9.42497C9.35866 11.9837 9.29507 11.9574 9.24819 11.9105C9.20131 11.8636 9.17497 11.8 9.17497 11.7337V9.1803C9.17497 9.11399 9.20131 9.0504 9.24819 9.00352C9.29507 8.95664 9.35866 8.9303 9.42497 8.9303H9.56474C9.59781 8.93 9.63062 8.93624 9.66128 8.94865C9.69194 8.96107 9.71984 8.97942 9.74339 9.00265C9.76694 9.02587 9.78566 9.05353 9.79849 9.08401C9.81132 9.1145 9.818 9.14722 9.81815 9.1803ZM12.7863 9.24962V11.6508C12.7864 11.7371 12.7529 11.8201 12.6929 11.8823C12.6329 11.9444 12.5511 11.9808 12.4647 11.9837C12.3838 11.9824 12.3064 11.9508 12.2477 11.8951C12.2363 11.886 11.8068 11.3269 11.442 10.8564C11.1693 10.5053 10.9329 10.1985 10.9329 10.1985V11.6633C10.9331 11.7253 10.9152 11.7861 10.8814 11.8382C10.8476 11.8903 10.7994 11.9314 10.7426 11.9565C10.6858 11.9815 10.6229 11.9895 10.5617 11.9794C10.5004 11.9693 10.4434 11.9416 10.3977 11.8996C10.3647 11.8697 10.3384 11.8332 10.3203 11.7925C10.3023 11.7518 10.2931 11.7078 10.2931 11.6633V9.26325C10.2921 9.17888 10.3234 9.09732 10.3807 9.03537C10.438 8.97343 10.5169 8.93582 10.6011 8.9303C10.6488 8.92952 10.696 8.93931 10.7394 8.95895C10.7828 8.9786 10.8214 9.00762 10.8522 9.04393C10.8659 9.05984 11.5261 9.91893 11.8977 10.4076C12.0454 10.5985 12.1477 10.7326 12.1477 10.7326V9.2553C12.1483 9.17079 12.1821 9.08992 12.2419 9.03016C12.3016 8.97041 12.3825 8.93657 12.467 8.93598C12.5507 8.93597 12.6311 8.96883 12.6908 9.02749C12.7505 9.08615 12.7848 9.16592 12.7863 9.24962ZM13.9091 10.7758V11.3439H14.867C14.9106 11.3413 14.9543 11.3477 14.9954 11.3626C15.0364 11.3775 15.074 11.4006 15.1058 11.4306C15.1376 11.4605 15.163 11.4967 15.1803 11.5368C15.1976 11.5769 15.2065 11.6201 15.2065 11.6638C15.2065 11.7075 15.1976 11.7507 15.1803 11.7908C15.163 11.831 15.1376 11.8671 15.1058 11.8971C15.074 11.927 15.0364 11.9502 14.9954 11.9651C14.9543 11.98 14.9106 11.9863 14.867 11.9837H13.5852C13.5004 11.9834 13.4192 11.9495 13.3593 11.8894C13.2995 11.8294 13.2659 11.748 13.2659 11.6633V9.24962C13.2662 9.16502 13.2999 9.08397 13.3597 9.02415C13.4196 8.96434 13.5006 8.9306 13.5852 8.9303H14.8636C14.9072 8.9277 14.9509 8.93404 14.992 8.94894C15.033 8.96384 15.0706 8.98698 15.1024 9.01694C15.1342 9.0469 15.1596 9.08305 15.1769 9.12316C15.1942 9.16327 15.2031 9.20649 15.2031 9.25018C15.2031 9.29387 15.1942 9.3371 15.1769 9.37721C15.1596 9.41732 15.1342 9.45347 15.1024 9.48343C15.0706 9.51338 15.033 9.53653 14.992 9.55143C14.9509 9.56633 14.9072 9.57267 14.8636 9.57007H13.9091V10.1383H14.867C14.9517 10.1383 15.0329 10.1719 15.0928 10.2318C15.1527 10.2917 15.1863 10.3729 15.1863 10.4576C15.1863 10.5423 15.1527 10.6235 15.0928 10.6834C15.0329 10.7432 14.9517 10.7769 14.867 10.7769L13.9091 10.7758Z" fill="#00C200"/>
</g>
<defs>
<clipPath id="clip0_174_90">
<rect width="20" height="20" fill="white" transform="translate(0.5 0.824707)"/>
</clipPath>
</defs>
</svg>
