<svg width="20" height="20" viewBox="0 0 20 20" fill="none" xmlns="http://www.w3.org/2000/svg">
<path d="M7.5 1.25C3.3575 1.25 0 4.04875 0 7.5C0 9.49 1.1225 11.255 2.86375 12.3975L1.875 14.375L4.56875 13.2212C5.14625 13.4262 5.74625 13.595 6.3875 13.6738C6.3 13.2925 6.25 12.9013 6.25 12.5C6.25 9.05375 9.61375 6.25 13.75 6.25C14.1288 6.25 14.4987 6.28125 14.8637 6.32625C14.2037 3.43625 11.16 1.25 7.5 1.25ZM5 5.9375C4.4825 5.9375 4.0625 5.5175 4.0625 5C4.0625 4.4825 4.4825 4.0625 5 4.0625C5.5175 4.0625 5.9375 4.4825 5.9375 5C5.9375 5.5175 5.5175 5.9375 5 5.9375ZM10 5.9375C9.4825 5.9375 9.0625 5.5175 9.0625 5C9.0625 4.4825 9.4825 4.0625 10 4.0625C10.5175 4.0625 10.9375 4.4825 10.9375 5C10.9375 5.5175 10.5175 5.9375 10 5.9375Z" fill="white"/>
<path d="M20 12.5C20 9.73875 17.2012 7.5 13.75 7.5C10.2988 7.5 7.5 9.73875 7.5 12.5C7.5 15.2613 10.2988 17.5 13.75 17.5C14.3175 17.5 14.8575 17.42 15.3813 17.3063L18.75 18.75L17.585 16.4213C19.045 15.5063 20 14.0988 20 12.5ZM11.875 12.1875C11.3575 12.1875 10.9375 11.7675 10.9375 11.25C10.9375 10.7325 11.3575 10.3125 11.875 10.3125C12.3925 10.3125 12.8125 10.7325 12.8125 11.25C12.8125 11.7675 12.3925 12.1875 11.875 12.1875ZM15.625 12.1875C15.1075 12.1875 14.6875 11.7675 14.6875 11.25C14.6875 10.7325 15.1075 10.3125 15.625 10.3125C16.1425 10.3125 16.5625 10.7325 16.5625 11.25C16.5625 11.7675 16.1425 12.1875 15.625 12.1875Z" fill="white"/>
</svg>
