<svg width="231" height="132" viewBox="0 0 231 132" fill="none" xmlns="http://www.w3.org/2000/svg">
    <g clip-path="url(#clip0_103_986)">
        <path d="M228.044 119.19C227.554 120.827 227.008 122.445 226.433 124.052H10.0532C7.3101 119.858 5.13285 115.319 3.57817 110.552C1.57852 104.428 0.421208 97.801 1.01451 91.3465C1.5895 85.1599 4.13118 79.175 9.43795 75.6634C14.3748 72.405 20.425 71.4803 26.0871 70.2657C32.0091 68.9961 37.6601 67.2237 42.597 63.602C47.8269 59.7638 51.5222 54.6083 54.2946 48.7923C59.5464 37.7583 63.2857 23.6017 75.8147 18.5783C89.7316 12.9971 103.14 24.4493 115.368 29.4031C121.484 31.8762 127.857 32.867 134.336 31.3405C140.382 29.9168 145.898 26.9372 151.549 24.4457C157.141 21.9908 163.06 20.013 169.245 20.6148C175.003 21.2353 180.432 23.6112 184.799 27.4216C189.2 31.1448 192.283 36.1925 193.589 41.813C194.885 47.6841 194.534 53.9221 196.717 59.5693C197.705 62.2353 199.386 64.588 201.588 66.3834C203.855 68.2182 206.506 69.4107 209.158 70.5446C211.897 71.7151 214.688 72.8306 217.193 74.4709C219.707 76.1392 221.92 78.2238 223.738 80.6355C232.187 91.7134 231.846 106.413 228.044 119.19Z" fill="#CBF4F4"/>
        <path d="M133.468 33.9825C133.235 34.041 133.012 34.1311 132.805 34.2503C132.575 34.3874 132.375 34.5682 132.215 34.7824L131.164 33.3917C130.799 33.5688 130.406 33.6794 130.003 33.7183C129.93 33.7183 129.853 33.7366 129.776 33.7403C129.637 33.7403 129.498 33.7403 129.355 33.7403C127.231 33.6632 124.773 32.0524 123.129 29.4214C121.114 26.2327 120.931 22.7137 122.59 20.9193L122.642 20.8606C122.856 20.6219 123.102 20.4144 123.374 20.2442C125.733 18.7544 129.468 20.446 131.724 24.0237C133.658 27.095 133.87 30.5589 132.395 32.4193L133.468 33.9825Z" fill="#272742"/>
        <path d="M132.182 32.1441C129.824 33.6339 126.088 31.9423 123.832 28.3683C122.312 25.9538 121.818 23.3852 122.4 21.4734C122.474 21.413 122.552 21.3579 122.634 21.3083C124.993 19.8185 128.732 21.5064 130.985 25.0841C132.482 27.4619 132.948 30.0709 132.395 31.9936C132.327 32.048 132.256 32.0982 132.182 32.1441Z" fill="#D2FFFF"/>
        <path d="M176.921 43.7835C176.902 52.9497 176.729 62.1135 176.401 71.2748H142.411V54.0872C140.845 54.1356 139.277 54.094 137.716 53.9625C136.784 53.9257 135.876 53.6517 135.079 53.1662C133.684 52.1755 133.361 50.2637 133.226 48.5538C132.949 45.0984 132.964 41.6257 133.273 38.173L133.548 33.9678C133.922 31.6734 134.686 29.4604 135.808 27.4253C136.97 25.3399 138.756 23.6717 140.913 22.655L141.367 23.088C142.129 23.8219 142.982 24.5558 144.026 24.6365C144.597 24.6619 145.164 24.5353 145.671 24.2696C146.445 26.3439 147.412 28.3413 148.556 30.236C150.527 28.2438 152.044 25.8481 153.004 23.2133C153.963 20.5784 154.343 17.7668 154.116 14.9712H154.076C154.102 14.6858 154.108 14.3989 154.094 14.1126C158.273 13.6796 162.484 14.175 166.66 14.6667L171.168 15.2171V15.2538C171.168 15.2538 177.445 16.2886 176.921 43.7835Z" fill="#FF7733"/>
        <path d="M162.906 47.8089L176.921 43.7798L176.599 67.7962L165.055 53.8707L162.906 47.8089Z" fill="#FF5331"/>
        <path d="M157.745 53.7937C157.705 53.7372 157.669 53.6784 157.636 53.6176C157.636 51.8269 157.657 50.0252 157.709 48.2345L162.906 47.8089V47.8823C164.173 48.6418 164.916 50.0839 165.103 51.5517C165.235 53.0271 165.044 54.5136 164.543 55.9073C164.436 56.3346 164.243 56.7355 163.975 57.0852C163.323 57.8447 162.191 57.9144 161.192 57.9255C159.679 57.9255 158.079 57.9255 156.779 57.1585C156.277 56.854 155.797 56.2485 156.083 55.7348C156.225 55.5256 156.428 55.3655 156.665 55.2761C157.319 54.9682 158.015 54.758 158.731 54.6523C158.334 54.4561 157.994 54.1603 157.745 53.7937Z" fill="#ED9E48"/>
        <path d="M176.922 43.7835C176.887 43.8618 176.851 43.9388 176.812 44.0147C176.149 45.2953 174.676 45.9081 173.288 46.2971C169.992 47.2254 166.575 47.508 163.177 47.7868L162.906 47.8089L157.709 48.2418L149.483 48.917C149.284 48.0415 149.133 47.1559 149.029 46.264C148.937 45.5301 148.871 44.8183 148.798 44.0954C148.654 42.6032 148.51 41.1109 148.366 39.6187C148.366 39.571 148.366 39.5233 148.366 39.4756C154.678 38.2304 161.026 37.2519 167.41 36.5401C165.76 32.0161 164.749 27.2832 164.407 22.4789C164.253 20.2992 164.36 17.8077 165.993 16.3619C167.242 15.2611 169.051 15.085 170.71 15.1987L171.172 15.2354C172.245 15.3492 173.325 15.6024 174.134 16.3142C175.233 17.2756 175.599 18.8241 175.874 20.2662C177.207 27.3284 177.683 34.5262 177.291 41.7029C177.284 42.4122 177.159 43.1153 176.922 43.7835Z" fill="#FF7733"/>
        <path d="M133.53 34.0706C133.53 34.0339 133.53 34.0009 133.53 33.9678C133.615 33.9454 133.702 33.9283 133.79 33.9165C135.398 33.6633 137.002 34.4265 138.32 35.3842C139.639 36.3419 140.814 37.5198 142.246 38.3014C144.077 39.3032 146.246 39.5747 148.348 39.6077C148.489 41.1024 148.633 42.5946 148.78 44.0844C148.853 44.8183 148.919 45.5302 149.011 46.253C146.172 45.5192 143.224 45.2953 140.331 44.7853C138.382 44.4477 136.302 43.8899 135.075 42.3414C134.178 41.2076 133.87 39.7068 133.852 38.2574C133.649 38.254 133.448 38.2206 133.255 38.1583C132.92 38.0578 132.614 37.8764 132.365 37.63C132.116 37.3835 131.931 37.0796 131.827 36.7449C131.722 36.4101 131.701 36.0548 131.766 35.7101C131.83 35.3654 131.978 35.0418 132.197 34.7678C132.357 34.5535 132.557 34.3727 132.786 34.2357C132.994 34.1165 133.217 34.0263 133.449 33.9678L133.53 34.0706Z" fill="#F7B05C"/>
        <path d="M176.401 71.2748H142.411V106.281H176.401V71.2748Z" fill="#272742"/>
        <path d="M150.032 9.47077H150.12C150.324 10.1857 150.382 10.9347 150.289 11.6724C149.699 11.4779 149.293 10.9385 148.93 10.4212L146.117 6.41048C146.01 6.23922 145.847 6.10982 145.656 6.04354C145.464 6.01639 145.269 6.05521 145.103 6.15362C142.609 7.2838 140.316 8.84697 137.778 9.90376C136.994 10.2365 136.183 10.5029 135.354 10.7C133.49 11.1367 131.545 11.166 129.787 10.4542C129.244 10.2558 128.755 9.93287 128.359 9.51114C128.162 9.29301 128.018 9.03175 127.94 8.74822C127.862 8.46469 127.851 8.16677 127.908 7.87825C128.077 7.08198 128.864 6.55726 129.651 6.3481C130.439 6.13894 131.27 6.17564 132.072 6.02152C133.393 5.70089 134.615 5.06087 135.632 4.15746C136.679 3.30248 137.635 2.32275 138.723 1.52281C139.811 0.722881 141.071 0.055048 142.422 -0.0073321C143.773 -0.0697122 145.202 0.539411 145.854 1.72096C146.501 1.00524 147.369 0.527261 148.318 0.363277C148.793 0.287826 149.279 0.331457 149.733 0.490264C150.187 0.649072 150.594 0.918105 150.919 1.27329C151.314 1.80874 151.585 2.42535 151.713 3.07865C152.055 4.40178 152.281 5.75241 152.387 7.11501L152.325 7.0196C151.959 6.43617 151.296 5.83438 150.655 6.09491C150.175 6.29306 149.996 6.8765 149.923 7.39388C149.852 8.08771 149.889 8.78831 150.032 9.47077Z" fill="#272742"/>
        <path d="M154.116 14.9712C154.343 17.7668 153.963 20.5784 153.004 23.2133C152.044 25.8481 150.527 28.2438 148.557 30.236C147.412 28.3413 146.445 26.3439 145.671 24.2695C145.982 24.1241 146.285 23.9587 146.575 23.7742C149.301 22.0773 151.596 19.7683 153.277 17.0298C153.583 16.5709 153.819 16.0688 153.977 15.54C154.024 15.352 154.057 15.1606 154.076 14.9676L154.116 14.9712Z" fill="#ED9E48"/>
        <path d="M145.671 24.2695C145.164 24.5353 144.597 24.6619 144.026 24.6365C142.982 24.5484 142.129 23.8035 141.367 23.088L140.913 22.655C139.426 21.2349 138.002 19.7195 136.998 17.9361C136.892 17.7914 136.818 17.625 136.783 17.4488C136.747 17.2726 136.751 17.0908 136.793 16.916C136.925 16.5784 137.309 16.417 137.525 16.1234C137.947 15.5583 137.606 14.7657 137.258 14.153C136.643 13.0521 136.024 11.9513 135.405 10.8725L135.365 10.6964C136.194 10.4992 137.005 10.2328 137.789 9.9001C140.316 8.84331 142.609 7.28013 145.114 6.14995C145.28 6.05154 145.475 6.01272 145.667 6.03987C145.854 6.10924 146.013 6.23978 146.117 6.41048L148.93 10.3771C149.047 10.5422 149.168 10.7074 149.296 10.8652C149.373 10.9522 149.475 11.0126 149.588 11.0376C149.701 11.0627 149.819 11.0511 149.925 11.0045C150.031 10.9579 150.119 10.8788 150.178 10.7786C150.236 10.6783 150.261 10.5622 150.249 10.4468C150.192 10.12 150.118 9.79655 150.025 9.47811C149.891 8.7967 149.863 8.09865 149.941 7.40856C150.021 6.7077 150.307 5.88942 151.289 6.06555C151.509 6.11172 151.713 6.21253 151.884 6.35872C152.055 6.50491 152.187 6.69179 152.266 6.90218C152.302 6.98187 152.345 7.05804 152.395 7.12969C153.585 9.07081 153.933 11.4082 154.068 13.6833C154.068 13.8264 154.068 13.9695 154.087 14.1163C154.101 14.4025 154.095 14.6895 154.068 14.9749C154.05 15.168 154.017 15.3593 153.969 15.5473C153.812 16.0761 153.576 16.5783 153.27 17.0371C151.593 19.7709 149.305 22.0771 146.586 23.7742C146.292 23.9591 145.986 24.1246 145.671 24.2695Z" fill="#F7B05C"/>
        <path d="M142.363 17.9178C142.048 17.9948 141.726 18.0682 141.404 18.1343C141.243 18.1636 141.082 18.1966 140.92 18.2223L140.726 18.2554C140.726 18.2297 140.726 18.2077 140.726 18.1856C140.763 17.5178 140.822 16.8536 140.909 16.1895C140.919 16.1477 140.912 16.104 140.89 16.0673C140.868 16.0305 140.833 16.0033 140.792 15.9913C140.772 15.9858 140.75 15.9845 140.729 15.9875C140.708 15.9904 140.687 15.9976 140.669 16.0085C140.65 16.0194 140.634 16.0339 140.622 16.0511C140.609 16.0683 140.6 16.0879 140.595 16.1087C140.543 16.4757 140.499 16.8793 140.466 17.2683C140.449 17.4615 140.435 17.656 140.422 17.8517C140.399 18.0318 140.391 18.2134 140.397 18.3948C140.419 18.5856 140.587 18.6113 140.763 18.5856C140.939 18.5599 141.129 18.5196 141.334 18.4829C141.701 18.4095 142.096 18.3251 142.473 18.2333C142.515 18.2187 142.549 18.1881 142.569 18.1482C142.588 18.1083 142.59 18.0624 142.576 18.0205C142.561 17.9787 142.531 17.9443 142.491 17.9251C142.451 17.9058 142.405 17.9032 142.363 17.9178Z" fill="#BC722E"/>
        <path d="M145.898 20.3543C145.867 20.6468 145.774 20.9293 145.625 21.1825C145.476 21.4358 145.274 21.6539 145.033 21.822C144.791 21.9556 144.522 22.0326 144.246 22.0472C143.971 22.0618 143.695 22.0137 143.44 21.9064C142.894 21.6683 142.421 21.2883 142.07 20.8056C142.053 20.7807 142.041 20.7517 142.038 20.7212C142.018 20.7037 142.003 20.682 141.993 20.6577C141.983 20.6334 141.979 20.6072 141.98 20.581C141.982 20.5548 141.99 20.5293 142.003 20.5066C142.016 20.4838 142.034 20.4644 142.056 20.4497C143.125 19.7158 144.224 19.0174 145.352 18.3544C145.374 18.3419 145.4 18.3353 145.425 18.3353C145.451 18.3353 145.476 18.3419 145.498 18.3544C145.539 18.3461 145.581 18.3521 145.618 18.3715C145.655 18.3909 145.684 18.4225 145.7 18.4609C145.943 19.0607 146.011 19.7171 145.898 20.3543Z" fill="#FFFEFD"/>
        <path d="M143.319 12.0687C143.187 11.9407 143.084 11.7864 143.015 11.6157C142.946 11.4451 142.914 11.2619 142.92 11.078C142.923 11.0541 142.929 11.0306 142.938 11.0083C142.949 10.9638 142.965 10.9207 142.986 10.8799C143.033 10.7902 143.109 10.7186 143.201 10.6761C143.293 10.6337 143.396 10.6228 143.495 10.645C143.675 10.6752 143.845 10.7453 143.994 10.85C144.143 10.9548 144.267 11.0916 144.356 11.2505C144.446 11.3967 144.483 11.5701 144.459 11.7405C144.435 11.9108 144.351 12.0673 144.224 12.1825C144.159 12.2397 144.083 12.2819 144 12.306C143.917 12.3301 143.829 12.3356 143.744 12.3219C143.579 12.2857 143.43 12.1968 143.319 12.0687Z" fill="#272742"/>
        <path d="M138.229 14.9088C138.097 14.7808 137.993 14.6265 137.924 14.4558C137.856 14.2852 137.823 14.102 137.829 13.9181C137.832 13.8941 137.839 13.8707 137.848 13.8484C137.859 13.8039 137.875 13.7608 137.895 13.7199C137.943 13.6303 138.018 13.5587 138.11 13.5162C138.202 13.4738 138.306 13.4628 138.404 13.4851C138.584 13.5153 138.754 13.5853 138.903 13.6901C139.052 13.7949 139.176 13.9317 139.265 14.0906C139.356 14.2368 139.392 14.4102 139.368 14.5805C139.344 14.7509 139.261 14.9074 139.133 15.0226C139.069 15.08 138.992 15.1224 138.909 15.1465C138.826 15.1706 138.739 15.1759 138.654 15.162C138.488 15.1258 138.339 15.0369 138.229 14.9088Z" fill="#272742"/>
        <path d="M144.213 8.94972C143.754 8.82225 143.268 8.82545 142.811 8.95896C142.354 9.09248 141.943 9.35104 141.624 9.70563C141.531 9.79711 141.478 9.92176 141.477 10.0522C141.476 10.1826 141.527 10.308 141.618 10.401C141.709 10.4939 141.834 10.5467 141.964 10.5477C142.094 10.5488 142.219 10.498 142.312 10.4065C142.373 10.3348 142.439 10.2673 142.51 10.2047L142.554 10.168C142.583 10.1451 142.614 10.1243 142.645 10.1056C142.724 10.0546 142.806 10.0093 142.891 9.96982H142.927L143.063 9.92579L143.319 9.86708H143.363H143.506H143.718H143.751H143.81L143.96 9.90377C144.088 9.93474 144.224 9.9135 144.336 9.84471C144.449 9.77592 144.53 9.6652 144.561 9.53683C144.587 9.41306 144.566 9.28385 144.502 9.17502C144.437 9.06618 144.334 8.98573 144.213 8.94972Z" fill="#272742"/>
        <path d="M136.185 13.7199C136.286 13.2536 136.514 12.8246 136.845 12.4811C137.176 12.1376 137.595 11.8932 138.057 11.7752C138.119 11.7512 138.186 11.7404 138.252 11.7432C138.319 11.746 138.385 11.7624 138.445 11.7915C138.505 11.8205 138.559 11.8616 138.602 11.9122C138.646 11.9628 138.679 12.0218 138.699 12.0856C138.72 12.1494 138.727 12.2167 138.72 12.2833C138.713 12.3499 138.693 12.4145 138.661 12.473C138.628 12.5316 138.584 12.5829 138.532 12.6238C138.479 12.6647 138.418 12.6943 138.353 12.7109C138.262 12.7322 138.173 12.7592 138.086 12.7916L138.031 12.8173L137.936 12.865C137.853 12.9111 137.775 12.9639 137.701 13.0228L137.668 13.0448L137.566 13.1438C137.507 13.2062 137.449 13.2759 137.394 13.342C137.387 13.3567 137.379 13.3704 137.368 13.3824L137.298 13.5035C137.276 13.5438 137.254 13.5878 137.236 13.6282C137.226 13.6471 137.218 13.6667 137.211 13.6869C137.209 13.6966 137.209 13.7066 137.211 13.7163C137.203 13.7353 137.197 13.7549 137.192 13.775C137.192 13.8264 137.167 13.8777 137.156 13.9291C137.118 14.0464 137.037 14.145 136.93 14.2055C136.823 14.266 136.697 14.284 136.577 14.2558C136.457 14.2277 136.352 14.1555 136.283 14.0535C136.214 13.9515 136.185 13.8272 136.203 13.7053L136.185 13.7199Z" fill="#272742"/>
        <path d="M171.168 15.2171V15.2538L170.706 15.2171C169.047 15.1033 167.238 15.2758 165.989 16.3803C164.356 17.826 164.25 20.3176 164.404 22.4972C164.746 27.3016 165.757 32.0345 167.407 36.5584C161.957 37.1602 156.536 37.9589 151.142 38.9546L139.371 23.521C139.859 23.1861 140.376 22.8974 140.917 22.6587L141.371 23.0917C142.133 23.8255 142.986 24.5594 144.03 24.6402C144.601 24.6655 145.168 24.5389 145.674 24.2732C146.449 26.3475 147.415 28.345 148.56 30.2397C150.531 28.2475 152.048 25.8518 153.007 23.2169C153.967 20.5821 154.346 17.7705 154.12 14.9749H154.079C154.106 14.6895 154.112 14.4026 154.098 14.1163C158.276 13.6833 162.488 14.1786 166.663 14.6703L171.168 15.2171Z" fill="#FF5331"/>
        <path d="M231 123.788V123.854H137.492C138.225 121.395 140.261 119.407 142.58 118.229C145.194 116.904 148.15 116.456 151.051 116.027C148.628 113.266 146.894 109.969 145.989 106.406C145.301 103.694 145.356 100.304 147.652 98.7221C149.179 97.6689 151.219 97.779 153.017 98.1937C156.291 98.9491 159.317 100.532 161.807 102.791C161.13 97.8976 161.368 92.9201 162.51 88.1138C163.206 85.2113 164.631 81.9895 167.517 81.2446C170.124 80.5621 172.772 82.261 174.629 84.2205C177.359 87.119 179.244 90.7119 180.078 94.6086C183.008 89.4164 186.026 84.0847 190.699 80.4006C193.168 78.4595 196.61 77.0174 199.397 78.4815C201.368 79.5163 202.448 81.784 202.646 84.0114C202.844 86.2387 202.28 88.444 201.756 90.6163C201.024 93.5176 200.3 96.4164 199.584 99.3128C203.122 97.0961 207.059 95.594 211.172 94.8912C212.835 94.6086 214.648 94.4875 216.116 95.3168C218.152 96.469 218.874 99.1697 218.423 101.463C217.973 103.756 216.592 105.745 215.266 107.664L211.487 113.073C213.47 112.494 215.547 112.311 217.601 112.536C219.654 112.761 221.643 113.389 223.454 114.385C225.265 115.38 226.863 116.723 228.155 118.337C229.448 119.951 230.411 121.805 230.989 123.792L231 123.788Z" fill="#38B2AC"/>
        <path d="M169.74 95.9957V123.615C169.747 123.683 169.78 123.746 169.831 123.792C169.882 123.837 169.948 123.862 170.016 123.862C170.084 123.862 170.15 123.837 170.201 123.792C170.252 123.746 170.285 123.683 170.293 123.615V95.992C170.284 95.924 170.251 95.8615 170.2 95.8163C170.149 95.7711 170.083 95.7464 170.014 95.7468C169.946 95.7473 169.88 95.7729 169.83 95.8188C169.779 95.8647 169.747 95.9276 169.74 95.9957Z" fill="#BBFFF5"/>
        <path d="M196.731 110.438C195.039 112.572 193.428 114.762 191.897 117.01V108.53C191.921 108.485 191.932 108.435 191.93 108.384C193.195 106.339 194.538 104.348 195.959 102.413C196.171 102.131 195.691 101.856 195.482 102.138C194.215 103.851 193.015 105.605 191.882 107.4V94.4985C191.874 94.4305 191.842 94.3678 191.791 94.3223C191.74 94.2767 191.674 94.2516 191.606 94.2516C191.537 94.2516 191.472 94.2767 191.421 94.3223C191.37 94.3678 191.337 94.4305 191.329 94.4985V107.962C189.37 107.015 187.249 106.428 185.334 105.393C185.023 105.224 184.744 105.701 185.059 105.874C187.063 106.975 189.293 107.562 191.329 108.589V116.97C189.575 115.972 187.846 114.934 186.154 113.833C185.858 113.638 185.579 114.119 185.88 114.313C187.66 115.47 189.476 116.571 191.329 117.616V123.259C191.337 123.327 191.37 123.39 191.421 123.436C191.472 123.481 191.537 123.506 191.606 123.506C191.674 123.506 191.74 123.481 191.791 123.436C191.842 123.39 191.874 123.327 191.882 123.259V117.961C191.897 117.949 191.91 117.937 191.923 117.924C193.551 115.478 195.279 113.112 197.105 110.827C197.339 110.56 196.955 110.163 196.731 110.438Z" fill="#BBFFF5"/>
        <path d="M174.742 99.2468C172.958 101.433 171.303 103.722 169.784 106.101C169.593 106.398 170.073 106.677 170.263 106.376C171.755 104.031 173.38 101.773 175.131 99.6137C175.354 99.3569 174.969 98.9606 174.742 99.2468Z" fill="#BBFFF5"/>
        <path d="M175.277 112.383C173.342 114.507 171.527 116.737 169.838 119.062C169.63 119.352 170.11 119.627 170.318 119.341C171.975 117.054 173.76 114.863 175.665 112.78C175.903 112.515 175.519 112.123 175.277 112.383Z" fill="#BBFFF5"/>
        <path d="M170.062 112.783C169.491 111.881 168.663 111.125 167.941 110.347L165.63 107.855C165.389 107.595 164.997 107.984 165.239 108.244L167.484 110.666L168.582 111.859C168.95 112.226 169.283 112.628 169.575 113.058C169.769 113.359 170.249 113.088 170.062 112.783Z" fill="#BBFFF5"/>
        <path d="M170.19 100.821C168.85 99.3067 167.441 97.8573 165.964 96.4727C165.704 96.2305 165.312 96.6195 165.572 96.8617C167.037 98.2438 168.446 99.6932 169.798 101.21C170.025 101.478 170.424 101.081 170.19 100.821Z" fill="#BBFFF5"/>
        <path d="M86.018 24.5704C86.018 24.7355 86.018 24.9043 86.018 25.0621C86.015 25.24 86.0028 25.4176 85.9813 25.5942C85.2489 34.1256 76.0453 42.9138 76.0453 42.9138C69.7278 36.7492 67.7135 30.9699 66.5561 27.6821C66.2448 26.7494 66.0792 25.774 66.0654 24.7906C66.0654 24.6475 66.0654 24.5704 66.0654 24.5704C66.1155 21.9502 67.1895 19.4542 69.0567 17.6189C70.9239 15.7836 73.4352 14.7555 76.0508 14.7555C78.6665 14.7555 81.1778 15.7836 83.045 17.6189C84.9121 19.4542 85.9862 21.9502 86.0363 24.5704H86.018ZM80.0959 24.9594C80.0959 24.1545 79.8577 23.3678 79.4114 22.6986C78.9651 22.0293 78.3308 21.5078 77.5886 21.1998C76.8465 20.8918 76.0298 20.8112 75.242 20.9682C74.4541 21.1252 73.7304 21.5128 73.1624 22.0819C72.5944 22.651 72.2075 23.3761 72.0508 24.1655C71.8941 24.9549 71.9745 25.7731 72.2819 26.5167C72.5894 27.2602 73.1099 27.8958 73.7779 28.3429C74.4458 28.7901 75.231 29.0288 76.0343 29.0288C77.1115 29.0288 78.1446 28.6 78.9063 27.8369C79.668 27.0737 80.0959 26.0386 80.0959 24.9594Z" fill="#FF5331"/>
        <path d="M87.9005 124.059H0.0476486C-0.373523 121.509 2.0473 119.197 4.46812 118.097C8.26264 116.382 12.5317 116.032 16.5539 117.106C14.3052 114.622 12.1591 111.903 11.2105 108.684C10.262 105.466 10.7198 101.636 13.1296 99.3055C15.327 97.1956 18.7147 96.7038 21.6446 97.5001C24.5745 98.2964 27.0869 100.215 29.2037 102.395C27.1969 97.2646 27.1747 91.5682 29.1415 86.4221C30.0534 84.0664 31.804 81.5895 34.331 81.4941C35.6019 81.4501 36.8178 82.0372 37.8579 82.7784C40.601 84.7342 42.4359 87.7688 43.5309 90.9612C44.6259 94.1536 45.0471 97.5331 45.4536 100.869C46.7057 98.4333 48.4955 96.3162 50.6872 94.6783C52.9212 93.0234 55.9976 91.9116 58.4331 93.2473C60.8685 94.5829 61.5717 97.6506 61.7292 100.388C61.9362 103.906 61.6064 107.435 60.7513 110.853C63.619 108.651 67.0176 107.059 70.6104 106.655C74.2032 106.252 77.9791 107.088 80.865 109.286C85.3038 112.688 86.9189 118.555 87.9005 124.059Z" fill="#38B2AC"/>
        <path d="M35.8069 115.128V107.903C35.8467 107.879 35.8805 107.846 35.9058 107.808C37.4846 105.106 39.2098 102.493 41.0734 99.9807C41.2822 99.6981 40.8024 99.4229 40.5936 99.7054C38.8791 102.021 37.2815 104.421 35.8069 106.898V89.9081C35.7991 89.8401 35.7666 89.7774 35.7156 89.7319C35.6646 89.6863 35.5987 89.6612 35.5304 89.6612C35.4621 89.6612 35.3962 89.6863 35.3452 89.7319C35.2942 89.7774 35.2617 89.8401 35.2539 89.9081V114.493C33.2616 112.433 31.3291 110.322 29.4564 108.16C29.222 107.888 28.8301 108.281 29.0645 108.549C31.0568 110.86 33.12 113.11 35.2539 115.297V123.348C35.2617 123.415 35.2942 123.478 35.3452 123.524C35.3962 123.569 35.4621 123.594 35.5304 123.594C35.5987 123.594 35.6646 123.569 35.7156 123.524C35.7666 123.478 35.7991 123.415 35.8069 123.348V121.399C37.2016 119.391 38.7493 117.495 40.4362 115.726C40.6815 115.466 40.2933 115.073 40.0479 115.33C38.5185 116.943 37.1015 118.659 35.8069 120.467V115.256C35.8166 115.214 35.8166 115.17 35.8069 115.128Z" fill="#BBFFF5"/>
        <path d="M57.1622 106.879C55.6893 108.76 54.32 110.72 53.0603 112.75C53.0969 111.187 53.1299 109.624 53.1775 108.061C53.2214 106.615 53.2703 105.168 53.324 103.72C53.324 103.353 52.7856 103.353 52.771 103.72C52.5976 108.48 52.4755 113.241 52.4047 118.001C50.6132 117.008 48.8992 115.881 47.2774 114.629C46.9954 114.412 46.7208 114.897 46.9991 115.11C48.7028 116.423 50.5065 117.601 52.3938 118.632C52.3938 118.783 52.3938 118.933 52.3938 119.084C52.3718 120.529 52.3547 121.976 52.3425 123.425C52.3503 123.493 52.3828 123.555 52.4338 123.601C52.4848 123.646 52.5507 123.672 52.619 123.672C52.6873 123.672 52.7532 123.646 52.8042 123.601C52.8552 123.555 52.8877 123.493 52.8955 123.425C52.9101 121.793 52.9309 120.161 52.9578 118.53C52.9686 118.489 52.9686 118.446 52.9578 118.405C52.9822 116.854 53.0127 115.302 53.0493 113.748C53.0975 113.729 53.1376 113.694 53.1628 113.649C54.5 111.438 55.9675 109.308 57.5577 107.272C57.7664 106.997 57.3819 106.586 57.1622 106.879Z" fill="#BBFFF5"/>
        <path d="M24.6294 115.047C23.4355 116.471 22.3148 117.953 21.2564 119.48C21.3552 117.539 21.4395 115.594 21.4981 113.649C21.4981 113.282 20.956 113.282 20.9451 113.649C20.8425 117.059 20.6777 120.468 20.4506 123.876C20.425 124.243 20.978 124.224 21.0037 123.876C21.0806 122.687 21.1428 121.498 21.2088 120.309C21.252 120.309 21.2944 120.297 21.3321 120.276C21.3698 120.255 21.4017 120.225 21.4248 120.188C22.5426 118.547 23.7417 116.964 25.0176 115.444C25.2593 115.172 24.8711 114.776 24.6294 115.047Z" fill="#BBFFF5"/>
        <path d="M156.661 56.399L161.041 64.6295L160.987 64.6588H129.666L122.253 56.509L122.341 56.4246H156.606L156.661 56.399Z" fill="#272742"/>
        <path d="M129.666 64.6588L138.459 74.3131L138.903 74.8011L136.855 76.6652L133.259 72.7132L110.834 48.0767L88.4132 72.7132L84.8167 76.6652L82.7694 74.8011L83.3298 74.1883L91.9803 64.6808L99.316 56.6228L102.239 53.4121L110.834 43.967L119.433 53.4121L122.253 56.5091L129.666 64.6588Z" fill="#272742"/>
        <path d="M99.316 56.6228L91.9803 64.6808L91.9547 64.6588H60.4584L64.8385 56.4247H99.0999L99.316 56.6228Z" fill="#272742"/>
        <path d="M79.162 47.141H72.9067V53.4121H79.162V47.141Z" fill="#272742"/>
        <path d="M166.286 118.607V123.88H133.259V118.607H163.056H166.286Z" fill="#636272"/>
        <path d="M161.041 64.6295L166.128 74.1883H163.056H138.598L138.459 74.3131L129.666 64.6588H160.987L161.041 64.6295Z" fill="#38385E"/>
        <path d="M163.067 74.1883V118.607H133.259V91.1337H133.325V88.8476H133.259V72.7022L136.855 76.6578L138.899 74.7901L138.459 74.302L138.595 74.1773L163.067 74.1883ZM157.229 108.787V106.142H154.797V85.7653H142.62V106.149H140.188V108.787H157.229Z" fill="#FFBE55"/>
        <path d="M157.229 106.149V108.795H140.188V106.149H142.62H143.839H148.029H149.721H153.687H154.797H157.229Z" fill="#38385E"/>
        <path d="M155.076 53.412L156.661 56.399L156.606 56.4246H122.341L122.253 56.509L119.433 53.412H155.076Z" fill="#38385E"/>
        <path d="M154.797 85.7617V106.149H153.687V96.7516V95.0086V87.3579H149.721H148.029H143.839V95.0086V96.7516V106.149H142.62V85.7617H154.797Z" fill="#38385E"/>
        <path d="M153.687 96.7516H149.721V106.145H153.687V96.7516Z" fill="#D2FFFF"/>
        <path d="M153.687 95.0086H149.721V96.7516H153.687V95.0086Z" fill="#38385E"/>
        <path d="M153.687 87.3578H149.721V95.0086H153.687V87.3578Z" fill="#D2FFFF"/>
        <path d="M149.721 96.7516H148.029V106.145H149.721V96.7516Z" fill="#38385E"/>
        <path d="M149.721 95.0086H148.029V96.7516H149.721V95.0086Z" fill="#38385E"/>
        <path d="M149.721 87.3578H148.029V95.0086H149.721V87.3578Z" fill="#38385E"/>
        <path d="M148.029 96.7516H143.839V106.145H148.029V96.7516Z" fill="#D2FFFF"/>
        <path d="M148.029 95.0086H143.839V96.7516H148.029V95.0086Z" fill="#38385E"/>
        <path d="M148.029 87.3578H143.839V95.0086H148.029V87.3578Z" fill="#D2FFFF"/>
        <path d="M133.259 118.607V123.88H126.667V119.663H119.627V95.7718H103.729H102.044V119.663H95.0054V123.88H88.4131V118.607V91.1337H133.259V118.607Z" fill="#FFBE55"/>
        <path d="M133.259 88.8476H88.4131V91.1337H133.259V88.8476Z" fill="#FFE5B8"/>
        <path d="M133.259 72.7132V88.8586H88.4131V72.7132L110.834 48.0767L133.259 72.7132ZM122.572 86.4038V83.7178H119.217V63.0406H102.451V83.7215H99.0999V86.4038H122.572Z" fill="#FFBE55"/>
        <path d="M126.667 119.663V123.88H95.0054V119.663H102.044H103.729H119.627H126.667Z" fill="#636272"/>
        <path d="M122.572 83.7215V86.4038H99.1V83.7215H102.455H103.978H109.442H111.775H117.54H119.217H122.572Z" fill="#38385E"/>
        <path d="M119.628 95.7718H103.729V119.66H119.628V95.7718Z" fill="#4C2222"/>
        <path d="M119.217 63.0406V83.7214H117.54V74.1883V72.4196V64.6588H111.775H109.442H103.978V72.4196V74.1883V83.7214H102.455V63.0406H119.217Z" fill="#38385E"/>
        <path d="M117.54 74.1847H111.775V83.7178H117.54V74.1847Z" fill="#D2FFFF"/>
        <path d="M117.54 72.4196H111.775V74.1846H117.54V72.4196Z" fill="#38385E"/>
        <path d="M117.54 64.6588H111.775V72.4196H117.54V64.6588Z" fill="#D2FFFF"/>
        <path d="M111.775 74.1847H109.442V83.7178H111.775V74.1847Z" fill="#38385E"/>
        <path d="M111.775 72.4196H109.442V74.1846H111.775V72.4196Z" fill="#38385E"/>
        <path d="M111.775 64.6588H109.442V72.4196H111.775V64.6588Z" fill="#38385E"/>
        <path d="M109.442 74.1847H103.978V83.7178H109.442V74.1847Z" fill="#D2FFFF"/>
        <path d="M109.442 72.4196H103.978V74.1846H109.442V72.4196Z" fill="#38385E"/>
        <path d="M109.442 64.6588H103.978V72.4196H109.442V64.6588Z" fill="#D2FFFF"/>
        <path d="M103.729 95.7718H102.044V119.66H103.729V95.7718Z" fill="#261414"/>
        <path d="M102.239 53.412L99.316 56.6228L99.0999 56.4246H64.8385L66.4426 53.412H72.9067H79.162H102.239Z" fill="#38385E"/>
        <path d="M91.9803 64.6808L83.3298 74.1883H58.6162H55.3896L60.4583 64.6588H91.9547L91.9803 64.6808Z" fill="#38385E"/>
        <path d="M88.4132 118.607V123.88H55.3896V118.607H58.6162H88.4132Z" fill="#636272"/>
        <path d="M88.4131 91.1337V118.607H58.6161V74.2067H83.3261L82.7694 74.8194L84.813 76.6872L88.4131 72.7315V91.152V91.1337ZM81.4839 108.787V106.142H79.0521V85.7653H66.8711V106.149H64.4393V108.787H81.4839Z" fill="#FFBE55"/>
        <path d="M81.484 106.149V108.795H64.443V106.149H66.8711H67.9845H71.9509H73.6429H77.8289H79.0522H81.484Z" fill="#38385E"/>
        <path d="M79.0522 85.7617V106.149H77.8289V96.7516V95.0086V87.3579H73.6428H71.9508H67.9845V95.0086V96.7516V106.149H66.8711V85.7617H79.0522Z" fill="#38385E"/>
        <path d="M77.8326 96.7516H73.6429V106.145H77.8326V96.7516Z" fill="#D2FFFF"/>
        <path d="M77.8326 95.0086H73.6429V96.7516H77.8326V95.0086Z" fill="#38385E"/>
        <path d="M77.8326 87.3578H73.6429V95.0086H77.8326V87.3578Z" fill="#D2FFFF"/>
        <path d="M73.6429 96.7516H71.9508V106.145H73.6429V96.7516Z" fill="#38385E"/>
        <path d="M73.6429 95.0086H71.9508V96.7516H73.6429V95.0086Z" fill="#38385E"/>
        <path d="M73.6429 87.3578H71.9508V95.0086H73.6429V87.3578Z" fill="#38385E"/>
        <path d="M71.9508 96.7516H67.9845V106.145H71.9508V96.7516Z" fill="#D2FFFF"/>
        <path d="M71.9508 95.0086H67.9845V96.7516H71.9508V95.0086Z" fill="#38385E"/>
        <path d="M71.9508 87.3578H67.9845V95.0086H71.9508V87.3578Z" fill="#D2FFFF"/>
        <path d="M88.4132 72.7132L82.7694 118.607H88.4132V72.7132Z" fill="#F7A62F"/>
        <path d="M133.259 118.607L142.62 74.1883H138.599L138.459 74.3131L138.902 74.8011L136.855 76.6652L133.259 72.7132V118.607Z" fill="#F7A62F"/>
        <path d="M0.0476074 124.059L231 123.788C231 123.788 204.631 132.004 110.607 132.004C16.5832 132.004 0.0476074 124.059 0.0476074 124.059Z" fill="#E8E8E8"/>
        <path d="M85.5931 73.4948H28.669V95.6581H85.5931V73.4948Z" fill="#FFFEFD"/>
        <path d="M57.6164 88.3339L58.4514 90.0292L60.3192 90.3044L58.9678 91.6217L59.2864 93.4858L57.6164 92.6088L55.9463 93.4858L56.265 91.6217L54.9135 90.3044L56.7813 90.0292L57.6164 88.3339Z" fill="#FFBE55"/>
        <path d="M64.4429 88.3339L65.278 90.0292L67.1458 90.3044L65.7943 91.6217L66.113 93.4858L64.4429 92.6088L62.7692 93.4858L63.0879 91.6217L61.7365 90.3044L63.6079 90.0292L64.4429 88.3339Z" fill="#FFBE55"/>
        <path d="M71.1781 88.3339L72.0131 90.0292L73.8809 90.3044L72.5295 91.6217L72.8481 93.4858L71.1781 92.6088L69.508 93.4858L69.8267 91.6217L68.4753 90.3044L70.3431 90.0292L71.1781 88.3339Z" fill="#FFBE55"/>
        <path d="M78.0047 88.3339L78.8397 90.0292L80.7075 90.3044L79.3561 91.6217L79.6748 93.4858L78.0047 92.6088L76.3347 93.4858L76.6533 91.6217L75.3019 90.3044L77.1697 90.0292L78.0047 88.3339Z" fill="#FFBE55"/>
        <path d="M51.0351 88.3339L51.8701 90.0292L53.7379 90.3044L52.3865 91.6217L52.7051 93.4858L51.0351 92.6088L49.365 93.4858L49.6837 91.6217L48.3322 90.3044L50.2001 90.0292L51.0351 88.3339Z" fill="#FFBE55"/>
        <path d="M44.6662 75.8872H30.2951V90.286H44.6662V75.8872Z" fill="#CBF4F4"/>
        <path d="M83.425 75.8872H45.9627V76.6688H83.425V75.8872Z" fill="#38385E"/>
        <path d="M83.425 79.131H45.9627V79.9126H83.425V79.131Z" fill="#38385E"/>
        <path d="M83.425 82.5656H45.9627V83.3472H83.425V82.5656Z" fill="#38385E"/>
        <path d="M78.5907 85.8093H45.9627V86.5909H78.5907V85.8093Z" fill="#38385E"/>
        <path d="M44.6662 75.8872L30.2951 90.2824V75.8872H44.6662Z" fill="#A8E5E3"/>
        <path d="M85.5931 97.79H28.669V119.953H85.5931V97.79Z" fill="#FFFEFD"/>
        <path d="M57.6164 112.629L58.4514 114.324L60.3192 114.596L58.9678 115.917L59.2864 117.781L57.6164 116.9L55.9463 117.781L56.265 115.917L54.9135 114.596L56.7813 114.324L57.6164 112.629Z" fill="#FFBE55"/>
        <path d="M64.4429 112.629L65.278 114.324L67.1458 114.596L65.7943 115.917L66.113 117.781L64.4429 116.9L62.7692 117.781L63.0879 115.917L61.7365 114.596L63.6079 114.324L64.4429 112.629Z" fill="#FFBE55"/>
        <path d="M71.1781 112.629L72.0131 114.324L73.8809 114.596L72.5295 115.917L72.8481 117.781L71.1781 116.9L69.508 117.781L69.8267 115.917L68.4753 114.596L70.3431 114.324L71.1781 112.629Z" fill="#FFBE55"/>
        <path d="M78.0047 112.629L78.8397 114.324L80.7075 114.596L79.3561 115.917L79.6748 117.781L78.0047 116.9L76.3347 117.781L76.6533 115.917L75.3019 114.596L77.1697 114.324L78.0047 112.629Z" fill="#FFBE55"/>
        <path d="M51.0351 112.629L51.8701 114.324L53.7379 114.596L52.3865 115.917L52.7051 117.781L51.0351 116.9L49.365 117.781L49.6837 115.917L48.3322 114.596L50.2001 114.324L51.0351 112.629Z" fill="#FFBE55"/>
        <path d="M44.6662 100.179H30.2951V114.578H44.6662V100.179Z" fill="#CBF4F4"/>
        <path d="M83.425 100.179H45.9627V100.96H83.425V100.179Z" fill="#38385E"/>
        <path d="M83.425 103.426H45.9627V104.208H83.425V103.426Z" fill="#38385E"/>
        <path d="M83.425 106.857H45.9627V107.639H83.425V106.857Z" fill="#38385E"/>
        <path d="M78.5907 110.105H45.9627V110.886H78.5907V110.105Z" fill="#38385E"/>
        <path d="M44.6662 100.179L30.2951 114.578V100.179H44.6662Z" fill="#A8E5E3"/>
        <path d="M28.2917 62.9672L25.8306 60.505L23.3915 62.9452L21.3992 60.9527L23.842 58.5089L21.3992 56.0614L23.3915 54.0652L25.8306 56.5127L28.2698 54.0652L30.2621 56.0614L27.8376 58.5162L30.2951 60.9784L28.2917 62.9672ZM25.8306 59.8409L28.2917 62.3031L29.6175 60.9711L27.193 58.5162L29.6322 56.0687L28.2917 54.7294L25.8526 57.1769L23.4135 54.7294L22.0657 56.0614L24.5195 58.5162L22.0657 60.9527L23.3952 62.281L25.8306 59.8409Z" fill="#FF5331"/>
        <path d="M37.5429 42.3708L30.8848 36.9144L36.327 30.2397L42.9889 35.6961L37.5429 42.3708ZM31.544 36.8483L37.477 41.7103L42.3296 35.7658L36.3929 30.9038L31.544 36.8483ZM37.3122 40.0774L33.1737 36.6832L36.5578 32.5331L40.6999 35.9273L37.3122 40.0774ZM33.833 36.6171L37.2463 39.4169L40.0407 35.9933L36.6237 33.1972L33.833 36.6171Z" fill="#FF5331"/>
        <path d="M40.6962 51.5443C41.613 51.5429 42.5096 51.814 43.2725 52.3233C44.0354 52.8326 44.6303 53.5573 44.982 54.4056C45.3337 55.2538 45.4263 56.1876 45.248 57.0886C45.0698 57.9896 44.6288 58.8174 43.9808 59.4671C43.3328 60.1169 42.5069 60.5594 41.6078 60.7387C40.7087 60.918 39.7767 60.826 38.9298 60.4743C38.0828 60.1226 37.3591 59.5271 36.8502 58.7631C36.3412 57.9991 36.0699 57.101 36.0706 56.1825C36.0726 54.9536 36.5604 53.7756 37.4274 52.9063C38.2943 52.037 39.4697 51.5473 40.6962 51.5443ZM43.6005 56.1825C43.6005 55.6079 43.4304 55.0461 43.1119 54.5683C42.7933 54.0904 42.3405 53.718 41.8107 53.4979C41.2809 53.2778 40.6979 53.2201 40.1353 53.3319C39.5728 53.4437 39.0559 53.7202 38.6501 54.1262C38.2443 54.5323 37.9678 55.0498 37.8555 55.6133C37.7431 56.1768 37.8 56.761 38.019 57.2921C38.238 57.8232 38.6092 58.2773 39.0857 58.5971C39.5622 58.9169 40.1227 59.0879 40.6962 59.0887C41.4652 59.0887 42.2028 58.7831 42.7472 58.239C43.2917 57.6949 43.5985 56.9566 43.6005 56.1862V56.1825Z" fill="#CBF4F4"/>
        <path d="M51.035 37.8391C51.5734 37.8391 52.0996 37.999 52.5472 38.2988C52.9948 38.5985 53.3435 39.0245 53.5494 39.5229C53.7552 40.0213 53.8089 40.5697 53.7036 41.0987C53.5983 41.6276 53.3388 42.1134 52.9579 42.4946C52.5769 42.8757 52.0917 43.1351 51.5636 43.2399C51.0356 43.3446 50.4883 43.2901 49.9912 43.0832C49.494 42.8763 49.0693 42.5263 48.7707 42.0775C48.4721 41.6286 48.3132 41.1011 48.3139 40.5618C48.3149 39.8393 48.602 39.1468 49.1122 38.6363C49.6224 38.1258 50.314 37.839 51.035 37.8391ZM52.738 40.5618C52.7373 40.2244 52.6368 39.8949 52.4492 39.6148C52.2617 39.3347 51.9954 39.1166 51.6842 38.988C51.373 38.8594 51.0307 38.8261 50.7006 38.8924C50.3704 38.9586 50.0673 39.1214 49.8295 39.3602C49.5917 39.599 49.4299 39.903 49.3645 40.2339C49.2991 40.5648 49.333 40.9077 49.462 41.2192C49.591 41.5308 49.8093 41.7971 50.0893 41.9844C50.3692 42.1717 50.6984 42.2717 51.035 42.2717C51.259 42.2717 51.4807 42.2275 51.6876 42.1415C51.8944 42.0555 52.0823 41.9295 52.2405 41.7707C52.3987 41.6118 52.5241 41.4233 52.6094 41.2159C52.6948 41.0084 52.7385 40.7861 52.738 40.5618Z" fill="#FFC764"/>
        <path d="M50.6799 21.2391L47.5716 19.0743L45.411 22.1886L48.5193 24.3533L50.6799 21.2391Z" fill="#CBF4F4"/>
        <path d="M115.376 24.3539C116.652 24.3539 117.686 23.3173 117.686 22.0385C117.686 20.7598 116.652 19.7231 115.376 19.7231C114.099 19.7231 113.065 20.7598 113.065 22.0385C113.065 23.3173 114.099 24.3539 115.376 24.3539Z" fill="#CBF4F4"/>
        <path d="M208.813 46.5392L211.271 44.0771L208.846 41.6369L210.839 39.6444L213.278 42.0882L215.721 39.6444L217.709 41.6369L215.267 44.0844L217.709 46.5282L215.721 48.5207L213.278 46.0806L210.82 48.5428L208.813 46.5392ZM215.706 47.8492L217.032 46.5209L214.589 44.0771L217.032 41.6296L215.706 40.3012L213.263 42.7377L210.824 40.2902L209.495 41.6369L211.934 44.0844L209.476 46.5466L210.806 47.8786L213.263 45.4164L215.706 47.8492Z" fill="#FFBE55"/>
        <path d="M180.723 54.3514L187.381 48.895L192.827 55.5807L186.169 61.0371L180.723 54.3514ZM187.315 49.5592L181.379 54.4175L186.235 60.3509L192.168 55.489L187.315 49.5592ZM183.012 54.5826L187.154 51.1774L190.538 55.3238L186.396 58.7181L183.012 54.5826ZM187.088 51.8526L183.671 54.6487L186.462 58.0722L189.879 55.2725L187.088 51.8526Z" fill="#FFFEFD"/>
        <path d="M211.714 58.5162C211.714 59.4335 211.442 60.3303 210.934 61.093C210.425 61.8557 209.702 62.4502 208.856 62.8013C208.01 63.1523 207.08 63.2442 206.182 63.0652C205.284 62.8863 204.459 62.4445 203.811 61.7959C203.164 61.1472 202.723 60.3208 202.544 59.4211C202.366 58.5213 202.457 57.5888 202.808 56.7413C203.158 55.8937 203.752 55.1694 204.513 54.6597C205.274 54.1501 206.169 53.8781 207.085 53.8781C208.312 53.879 209.489 54.368 210.357 55.2376C211.225 56.1072 211.713 57.2864 211.714 58.5162ZM207.085 61.4224C207.658 61.4224 208.219 61.2519 208.696 60.9326C209.173 60.6133 209.545 60.1594 209.765 59.6283C209.984 59.0973 210.042 58.513 209.93 57.9492C209.818 57.3855 209.541 56.8677 209.136 56.4612C208.73 56.0548 208.213 55.778 207.651 55.6659C207.088 55.5537 206.505 55.6113 205.975 55.8312C205.445 56.0512 204.992 56.4237 204.673 56.9016C204.354 57.3795 204.184 57.9414 204.184 58.5162C204.186 59.2857 204.493 60.023 205.036 60.5664C205.58 61.1099 206.317 61.415 207.085 61.415V61.4224Z" fill="#CBF4F4"/>
        <path d="M204.085 45.7907C204.086 46.3302 203.927 46.8578 203.628 47.3068C203.33 47.7557 202.905 48.1057 202.407 48.3125C201.91 48.5193 201.362 48.5736 200.834 48.4685C200.306 48.3634 199.821 48.1037 199.44 47.7222C199.059 47.3407 198.8 46.8545 198.695 46.3253C198.59 45.7961 198.644 45.2476 198.851 44.7493C199.057 44.251 199.407 43.8252 199.855 43.5259C200.303 43.2266 200.829 43.0672 201.368 43.068C202.088 43.0699 202.778 43.3574 203.287 43.8676C203.796 44.3778 204.083 45.0692 204.085 45.7907ZM201.379 47.508C201.716 47.508 202.046 47.4077 202.327 47.2198C202.608 47.0319 202.826 46.7648 202.956 46.4524C203.085 46.1399 203.119 45.7961 203.053 45.4644C202.987 45.1327 202.824 44.828 202.586 44.5889C202.347 44.3498 202.043 44.1869 201.712 44.1209C201.381 44.0549 201.038 44.0888 200.726 44.2182C200.414 44.3477 200.147 44.5668 199.96 44.848C199.772 45.1292 199.672 45.4598 199.672 45.798C199.672 46.2515 199.852 46.6865 200.172 47.0071C200.492 47.3278 200.926 47.508 201.379 47.508Z" fill="#FF5331"/>
        <path d="M200.89 30.2274L204.009 28.0697L201.856 24.9443L198.736 27.102L200.89 30.2274Z" fill="#FFBE55"/>
        <path d="M181.613 23.1283C182.287 23.1283 182.833 22.5813 182.833 21.9064C182.833 21.2316 182.287 20.6845 181.613 20.6845C180.939 20.6845 180.393 21.2316 180.393 21.9064C180.393 22.5813 180.939 23.1283 181.613 23.1283Z" fill="#FF5331"/>
        <path d="M212.337 78.9549C213.287 78.9549 214.058 78.1827 214.058 77.2302C214.058 76.2778 213.287 75.5056 212.337 75.5056C211.386 75.5056 210.615 76.2778 210.615 77.2302C210.615 78.1827 211.386 78.9549 212.337 78.9549Z" fill="#FF5331"/>
        <path d="M19.546 77.8871C20.4178 77.8871 21.1245 77.179 21.1245 76.3055C21.1245 75.4321 20.4178 74.724 19.546 74.724C18.6742 74.724 17.9675 75.4321 17.9675 76.3055C17.9675 77.179 18.6742 77.8871 19.546 77.8871Z" fill="#FF5331"/>
        <path d="M59.8027 51.1003C60.6361 51.1003 61.3116 50.4235 61.3116 49.5885C61.3116 48.7536 60.6361 48.0767 59.8027 48.0767C58.9694 48.0767 58.2938 48.7536 58.2938 49.5885C58.2938 50.4235 58.9694 51.1003 59.8027 51.1003Z" fill="#FFFEFD"/>
    </g>
    <defs>
        <clipPath id="clip0_103_986">
            <rect width="231" height="132" fill="white"/>
        </clipPath>
    </defs>
</svg>
